<?xml version="1.0" encoding="utf-8"?>
<!-- Generator: Adobe Illustrator 21.0.0, SVG Export Plug-In . SVG Version: 6.00 Build 0)  -->
<svg version="1.1" id="图层_1" xmlns="http://www.w3.org/2000/svg" xmlns:xlink="http://www.w3.org/1999/xlink" x="0px" y="0px"
	 viewBox="0 0 18 18" style="enable-background:new 0 0 18 18;" xml:space="preserve">
<g id="订单管理" style="display:none;">
	<path style="display:inline;fill:#FFFFFF;" d="M15,18H3c-0.6,0-1-0.4-1-1V1c0-0.6,0.4-1,1-1h7l6,6.1V17C16,17.6,15.6,18,15,18z"/>
	<path style="display:inline;fill:#BADBFF;" d="M15,18H3c-0.6,0-1-0.4-1-1V1c0-0.6,0.4-1,1-1h7v6h6v11C16,17.6,15.6,18,15,18z"/>
	<rect x="4" y="8" style="display:inline;fill:#4DA1FF;" width="5" height="2"/>
	<rect x="4" y="12" style="display:inline;fill:#4DA1FF;" width="9" height="2"/>
	<polygon style="display:inline;fill:#8FBDF8;" points="16,9 10,6 16,6 	"/>
</g>
<g id="库存查询" style="display:none;">
	<path style="display:inline;fill:#BADBFF;" d="M17,18H1c-0.6,0-1-0.4-1-1V5h18v12C18,17.6,17.6,18,17,18z"/>
	<polygon style="display:inline;fill:#FFFFFF;" points="18,5 0,5 2,0 16,0 	"/>
	<rect x="8.5" style="display:inline;fill:#A1CDFF;" width="1" height="5"/>
	<polygon style="display:inline;fill:#7CB1F0;" points="18,8 2,5 18,5 	"/>
	<path style="display:inline;fill:#4DA1FF;" d="M12,10H6c-0.6,0-1-0.4-1-1l0,0c0-0.6,0.4-1,1-1h6c0.6,0,1,0.4,1,1l0,0
		C13,9.6,12.6,10,12,10z"/>
</g>
<g id="客户管理" style="display:none;">
	<path style="display:inline;fill:#91BFF8;" d="M12.5,9.8c-0.7,1.3-2,2.2-3.5,2.2s-2.9-0.9-3.5-2.2C2.8,11.1,1,13.9,1,17
		c0,0.3,0,0.7,0.1,1H17c0-0.3,0.1-0.7,0.1-1C17,13.9,15.2,11.1,12.5,9.8z"/>
	<path style="display:inline;fill:#BADBFF;" d="M13.3,10.3c-0.5,1.9-2.3,3.2-4.3,3.2s-3.8-1.4-4.3-3.2C2.5,11.7,1,14.2,1,17
		c0,0.3,0,0.7,0.1,1H17c0-0.3,0.1-0.7,0.1-1C17,14.2,15.5,11.7,13.3,10.3z"/>
	<path style="display:inline;fill:#BADBFF;" d="M13.3,10.3c-0.5,1.9-2.3,3.2-4.3,3.2s-3.8-1.4-4.3-3.2C2.5,11.7,1,14.2,1,17
		c0,0.3,0,0.7,0.1,1H17c0-0.3,0.1-0.7,0.1-1C17,14.2,15.5,11.7,13.3,10.3z"/>
	<circle style="display:inline;fill:#FFFFFF;" cx="9" cy="5" r="5"/>
</g>
<g id="审核" style="display:none;">
	<path style="display:inline;fill:#BADBFF;" d="M14,15V1c0-0.6-0.4-1-1-1H1C0.4,0,0,0.4,0,1v16c0,0.6,0.4,1,1,1h8h2v-3H14z"/>
	<polygon style="display:inline;fill:#7CB1F0;" points="12,18 5,18 6,11 12,11 	"/>
	<rect x="1" y="3" style="display:inline;fill:#4DA1FF;" width="12" height="2"/>
	<rect x="1" y="7" style="display:inline;fill:#4DA1FF;" width="10" height="2"/>
	<path style="display:inline;fill:#FFFFFF;" d="M12,18l-5.6-4.7C6.1,13.1,6,12.8,6,12.5v-4c0-0.3,0.2-0.6,0.5-0.7L10,7l1.7-1.7
		c0.2-0.2,0.5-0.2,0.7,0L14,7l3.5,0.9c0.3,0,0.5,0.3,0.5,0.6v4c0,0.3-0.1,0.6-0.4,0.8L12,18z"/>
</g>
<g id="报表">
	<path style="fill:#BADBFF;" d="M16,4H0V1h16c0.6,0,1,0.4,1,1v1C17,3.6,16.6,4,16,4z"/>
	<path style="fill:#FFFFFF;" d="M14,10H6V7h8c0.6,0,1,0.4,1,1v1C15,9.6,14.6,10,14,10z"/>
	<path style="fill:#BADBFF;" d="M16,16H0v-3h16c0.6,0,1,0.4,1,1v1C17,15.6,16.6,16,16,16z"/>
	<rect y="7" style="fill:#FFFFFF;" width="4" height="3"/>
	<path style="fill:#7CB1F0;" d="M17,14c0-0.6-0.4-1-1-1H0l17,1.9V14z"/>
</g>
</svg>
