<?xml version="1.0" encoding="utf-8"?>
<!-- Generator: Adobe Illustrator 21.0.0, SVG Export Plug-In . SVG Version: 6.00 Build 0)  -->
<svg version="1.1" id="客户管理" xmlns="http://www.w3.org/2000/svg" xmlns:xlink="http://www.w3.org/1999/xlink" x="0px"
  y="0px" viewBox="0 0 16 18" style="enable-background:new 0 0 16 18;" xml:space="preserve">
<title>客户管理</title>
<path style="fill:#91BFF8;" d="M11.5,9.8c-1,2-3.5,2.7-5.4,1.7c-0.7-0.4-1.3-1-1.7-1.7c-3.1,1.5-4.8,4.8-4.4,8.2h15.9
 C16.4,14.6,14.6,11.3,11.5,9.8z"/>
<path style="fill:#BADBFF;" d="M12.3,10.3c-0.7,2.4-3.1,3.8-5.5,3.1c-1.5-0.4-2.7-1.6-3.1-3.1c-2.6,1.6-4,4.7-3.6,7.7h15.9
 C16.3,14.9,14.9,11.9,12.3,10.3z"/>
<path style="fill:#BADBFF;" d="M12.3,10.3c-0.7,2.4-3.1,3.8-5.5,3.1c-1.5-0.4-2.7-1.6-3.1-3.1c-2.6,1.6-4,4.7-3.6,7.7h15.9
 C16.3,14.9,14.9,11.9,12.3,10.3z"/>
<circle style="fill:#FFFFFF;" cx="8" cy="5" r="5"/>
</svg>
