<?xml version="1.0" encoding="utf-8"?>
<!-- Generator: Adobe Illustrator 21.0.0, SVG Export Plug-In . SVG Version: 6.00 Build 0)  -->
<svg version="1.1" id="图层_2" xmlns="http://www.w3.org/2000/svg" xmlns:xlink="http://www.w3.org/1999/xlink" x="0px" y="0px"
	 viewBox="0 0 18 18" style="enable-background:new 0 0 18 18;" xml:space="preserve">
<title>库存查询</title>
<path style="fill:#BADBFF;" d="M0,5h18l0,0v12c0,0.6-0.4,1-1,1H1c-0.6,0-1-0.4-1-1V5L0,5z"/>
<polygon style="fill:#FFFFFF;" points="18,5 0,5 2,0 16,0 "/>
<rect x="8.5" style="fill:#A1CDFF;" width="1" height="5"/>
<polygon style="fill:#7CB1F0;" points="18,8 2,5 18,5 "/>
<path style="fill:#4DA1FF;" d="M6,8h6c0.6,0,1,0.4,1,1l0,0c0,0.6-0.4,1-1,1H6c-0.6,0-1-0.4-1-1l0,0C5,8.4,5.4,8,6,8z"/>
</svg>
