<?xml version="1.0" encoding="utf-8"?>
<!-- Generator: Adobe Illustrator 21.0.0, SVG Export Plug-In . SVG Version: 6.00 Build 0)  -->
<svg version="1.1" id="图层_1" xmlns="http://www.w3.org/2000/svg" xmlns:xlink="http://www.w3.org/1999/xlink" x="0px" y="0px"
	 viewBox="0 0 14 14" style="enable-background:new 0 0 14 14;" xml:space="preserve">
<path d="M12,6H4.4l2.4-2.4C7,3.4,7.1,3.2,7.1,2.9c0-0.3-0.1-0.5-0.4-0.7c-0.4-0.4-1-0.4-1.4,0L1.2,6.3C1.1,6.4,0.9,6.6,0.9,7
	s0.2,0.6,0.3,0.7l4.2,4.1c0.4,0.4,1,0.4,1.4,0c0.2-0.2,0.3-0.5,0.3-0.7c0-0.2-0.1-0.5-0.3-0.7L4.4,8H12c0.6,0,1-0.4,1-1S12.6,6,12,6
	z"/>
</svg>
