<?xml version="1.0" encoding="utf-8"?>
<!-- Generator: Adobe Illustrator 21.0.0, SVG Export Plug-In . SVG Version: 6.00 Build 0)  -->
<svg version="1.1" id="图层_1" xmlns="http://www.w3.org/2000/svg" xmlns:xlink="http://www.w3.org/1999/xlink" x="0px" y="0px"
	 viewBox="0 0 18 18" style="enable-background:new 0 0 18 18;" xml:space="preserve">
<g id="日历">
	<g>
		<path d="M16,4v12H2V4H16 M17,2H1C0.4,2,0,2.4,0,3v14c0,0.6,0.4,1,1,1h16c0.6,0,1-0.4,1-1V3C18,2.4,17.6,2,17,2L17,2z"/>
	</g>
	<g>
		<polygon points="17,6 1,6 1,8 17,8 		"/>
	</g>
	<g>
		<path d="M5,0C4.4,0,4,0.4,4,1v6h2V1C6,0.4,5.6,0,5,0L5,0z"/>
	</g>
	<g>
		<path d="M13,0c-0.6,0-1,0.4-1,1v6h2V1C14,0.4,13.6,0,13,0L13,0z"/>
	</g>
</g>
</svg>
