<?xml version="1.0" encoding="utf-8"?>
<!-- Generator: Adobe Illustrator 21.0.0, SVG Export Plug-In . SVG Version: 6.00 Build 0)  -->
<svg version="1.1" id="图层_1" xmlns="http://www.w3.org/2000/svg" xmlns:xlink="http://www.w3.org/1999/xlink" x="0px" y="0px"
	 viewBox="0 0 8 8" style="enable-background:new 0 0 8 8;" xml:space="preserve">
<g>
	<path d="M6.2,7.7L0.3,1.8c-0.4-0.4-0.4-1.1,0-1.5l0,0c0.4-0.4,1.1-0.4,1.5,0l5.9,5.9c0.4,0.4,0.4,1.1,0,1.5l0,0
		C7.3,8.1,6.6,8.1,6.2,7.7z"/>
</g>
<g>
	<path d="M0.3,6.2l5.9-5.9c0.4-0.4,1.1-0.4,1.5,0l0,0c0.4,0.4,0.4,1.1,0,1.5L1.8,7.7c-0.4,0.4-1.1,0.4-1.5,0l0,0
		C-0.1,7.3-0.1,6.6,0.3,6.2z"/>
</g>
</svg>
