<?xml version="1.0" encoding="utf-8"?>
<!-- Generator: Adobe Illustrator 21.0.0, SVG Export Plug-In . SVG Version: 6.00 Build 0)  -->
<svg version="1.1" id="图层_1" xmlns="http://www.w3.org/2000/svg" xmlns:xlink="http://www.w3.org/1999/xlink" x="0px" y="0px"
	 viewBox="0 0 16 16" style="enable-background:new 0 0 16 16;" xml:space="preserve">
<g id="搜索" style="display:none;">
	<g style="display:inline;">
		<path d="M6.5,0C2.9,0,0,2.9,0,6.5S2.9,13,6.5,13S13,10.1,13,6.5S10.1,0,6.5,0z M6.5,12C3.5,12,1,9.5,1,6.5
			S3.5,1,6.5,1S12,3.5,12,6.5S9.5,12,6.5,12z"/>
	</g>
	<g style="display:inline;">
		<path d="M15.1,15.1L15.1,15.1c-0.4,0.4-1,0.4-1.4,0l-3.5-3.5l1.4-1.4l3.5,3.5
			C15.5,14.1,15.5,14.7,15.1,15.1z"/>
	</g>
</g>
<g id="编辑" style="display:none;">
	<rect y="15" style="display:inline;" width="16" height="1"/>
	<path style="display:inline;" d="M13.6,4.7c0.1,0.1,0.1,0.2,0,0.2L5.5,13H2V9.5l8.1-8.1c0.1-0.1,0.2-0.1,0.2,0
		L13.6,4.7 M14.3,4L11,0.7c-0.5-0.5-1.2-0.5-1.6,0L1,9.1V14h4.9l8.4-8.4C14.8,5.2,14.8,4.4,14.3,4L14.3,4z"/>
</g>
<g id="查看报表" style="display:none;">
	<rect style="display:inline;" width="1" height="16"/>
	<rect y="15" style="display:inline;" width="16" height="1"/>
	<rect x="11" y="4" style="display:inline;" width="4" height="1"/>
	<rect x="14" y="4" style="display:inline;" width="1" height="4"/>
	<g style="display:inline;">
		<path d="M2,12.5c-0.1,0-0.2,0-0.3-0.1c-0.2-0.2-0.3-0.5-0.1-0.7l4-6C5.7,5.6,5.8,5.5,6,5.5s0.3,0,0.4,0.1
			L10,9.3l3.7-4.6c0.2-0.2,0.5-0.2,0.7-0.1c0.2,0.2,0.2,0.5,0.1,0.7l-4,5c-0.1,0.1-0.2,0.2-0.4,0.2c-0.1,0-0.3,0-0.4-0.1L6.1,6.8
			l-3.7,5.5C2.3,12.4,2.2,12.5,2,12.5z"/>
	</g>
</g>
<g id="删除">
	<path d="M13,3.1v11.8H3V3.1H13 M14,2H2v12.9C2,15.5,2.4,16,3,16h10c0.6,0,1-0.5,1-1.1V2L14,2z"/>
	<path d="M10,1v1H6V1H10 M10,0H6C5.4,0,5,0.4,5,1v2h6V1C11,0.4,10.6,0,10,0L10,0z"/>
	<path d="M15.5,3h-15C0.2,3,0,2.8,0,2.5l0,0C0,2.2,0.2,2,0.5,2h15C15.8,2,16,2.2,16,2.5l0,0
		C16,2.8,15.8,3,15.5,3z"/>
	<rect x="6" y="5" width="1" height="8"/>
	<rect x="9" y="5" width="1" height="8"/>
</g>
</svg>
