<?xml version="1.0" encoding="utf-8"?>
<!-- Generator: Adobe Illustrator 21.0.0, SVG Export Plug-In . SVG Version: 6.00 Build 0)  -->
<svg version="1.1" id="图层_1" xmlns="http://www.w3.org/2000/svg" xmlns:xlink="http://www.w3.org/1999/xlink" x="0px" y="0px"
	 viewBox="0 0 16 16" style="enable-background:new 0 0 16 16;" xml:space="preserve">
<g id="搜索" style="display:none;">
	<g style="display:inline;">
		<path d="M6.5,0C2.9,0,0,2.9,0,6.5S2.9,13,6.5,13S13,10.1,13,6.5S10.1,0,6.5,0z M6.5,12C3.5,12,1,9.5,1,6.5
			S3.5,1,6.5,1S12,3.5,12,6.5S9.5,12,6.5,12z"/>
	</g>
	<g style="display:inline;">
		<path d="M15.1,15.1L15.1,15.1c-0.4,0.4-1,0.4-1.4,0l-3.5-3.5l1.4-1.4l3.5,3.5
			C15.5,14.1,15.5,14.7,15.1,15.1z"/>
	</g>
</g>
<g id="编辑" style="display:none;">
	<rect y="15" style="display:inline;" width="16" height="1"/>
	<path style="display:inline;" d="M13.6,4.7c0.1,0.1,0.1,0.2,0,0.2L5.5,13H2V9.5l8.1-8.1c0.1-0.1,0.2-0.1,0.2,0
		L13.6,4.7 M14.3,4L11,0.7c-0.5-0.5-1.2-0.5-1.6,0L1,9.1V14h4.9l8.4-8.4C14.8,5.2,14.8,4.4,14.3,4L14.3,4z"/>
</g>
<g id="查看报表" style="display:none;">
	<rect style="display:inline;" width="1" height="16"/>
	<rect y="15" style="display:inline;" width="16" height="1"/>
	<rect x="11" y="4" style="display:inline;" width="4" height="1"/>
	<rect x="14" y="4" style="display:inline;" width="1" height="4"/>
	<g style="display:inline;">
		<path d="M2,12.5c-0.1,0-0.2,0-0.3-0.1c-0.2-0.2-0.3-0.5-0.1-0.7l4-6C5.7,5.6,5.8,5.5,6,5.5s0.3,0,0.4,0.1
			L10,9.3l3.7-4.6c0.2-0.2,0.5-0.2,0.7-0.1c0.2,0.2,0.2,0.5,0.1,0.7l-4,5c-0.1,0.1-0.2,0.2-0.4,0.2c-0.1,0-0.3,0-0.4-0.1L6.1,6.8
			l-3.7,5.5C2.3,12.4,2.2,12.5,2,12.5z"/>
	</g>
</g>
<path d="M15.4,3.5c-0.2-0.2-0.5-0.2-0.7,0l-8.8,8.8L1.9,8.5c-0.2-0.2-0.5-0.2-0.7,0C1,8.7,1,9,1.2,9.2
	l4.2,4.2c0.1,0.1,0.1,0.1,0.2,0.1c0.2,0.1,0.4,0.1,0.6-0.1l9.2-9.2C15.6,4.1,15.6,3.7,15.4,3.5z"/>
</svg>
