<?xml version="1.0" encoding="utf-8"?>
<!-- Generator: Adobe Illustrator 21.0.0, SVG Export Plug-In . SVG Version: 6.00 Build 0)  -->
<svg version="1.1" id="图层_1" xmlns="http://www.w3.org/2000/svg" xmlns:xlink="http://www.w3.org/1999/xlink" x="0px" y="0px"
	 viewBox="0 0 14 14" style="enable-background:new 0 0 14 14;" xml:space="preserve">
<path style="fill:#4DA1FF;" d="M6.8,10.4c0.2,0.2,0.3,0.5,0.3,0.7S7,11.6,6.8,11.8c-0.4,0.4-1,0.4-1.4,0L1.2,7.7
	C1.2,7.6,1.1,7.5,1,7.4C1,7.3,0.9,7.1,0.9,7c0-0.2,0-0.3,0.1-0.4c0.1-0.1,0.1-0.2,0.2-0.3l4.1-4.1c0.4-0.4,1-0.4,1.4,0
	C7,2.4,7.1,2.6,7.1,2.9S7,3.4,6.8,3.6L3.4,7l1,1L6.8,10.4z"/>
<path style="fill:#4DA1FF;" d="M0,7"/>
<path style="fill:#4DA1FF;" d="M12,8H4C3.4,8,3,7.6,3,7v0c0-0.6,0.4-1,1-1h8c0.6,0,1,0.4,1,1v0C13,7.6,12.6,8,12,8z"/>
</svg>
