<?xml version="1.0" encoding="utf-8"?>
<!-- Generator: Adobe Illustrator 21.0.0, SVG Export Plug-In . SVG Version: 6.00 Build 0)  -->
<svg version="1.1" id="图层_1" xmlns="http://www.w3.org/2000/svg" xmlns:xlink="http://www.w3.org/1999/xlink" x="0px" y="0px"
	 viewBox="0 0 16 16" style="enable-background:new 0 0 16 16;" xml:space="preserve">
<g id="复制素材">
	<path d="M15,1v10H5V1H15 M15,0H5C4.4,0,4,0.4,4,1v10c0,0.6,0.4,1,1,1h10c0.6,0,1-0.4,1-1V1C16,0.4,15.6,0,15,0L15,0z"/>
	<path d="M11,12v3H1V5h2.9H4V4H3.9H1C0.4,4,0,4.4,0,5v10c0,0.6,0.4,1,1,1h10c0.6,0,1-0.4,1-1v-3H11z"/>
	<g>
		<path d="M8,3c0.6,0,1,0.4,1,1S8.6,5,8,5S7,4.6,7,4S7.4,3,8,3 M8,2C6.9,2,6,2.9,6,4s0.9,2,2,2s2-0.9,2-2S9.1,2,8,2L8,2z"/>
	</g>
	<g>
		<path d="M7.5,10c-2.3,0-3.4-2.2-3.4-2.3L5,7.3C5,7.3,5.8,9,7.5,9C8.3,9,9,8.3,9.6,7.6C10.4,6.9,11.3,6,12.5,6
			c2.3,0,3.4,3.2,3.5,3.3l-1,0.4C14.8,8.9,13.8,7,12.5,7c-0.8,0-1.5,0.7-2.1,1.4C9.6,9.1,8.7,10,7.5,10z"/>
	</g>
</g>
</svg>
