<?xml version="1.0" encoding="utf-8"?>
<!-- Generator: Adobe Illustrator 21.0.0, SVG Export Plug-In . SVG Version: 6.00 Build 0)  -->
<svg version="1.1" id="图层_1" xmlns="http://www.w3.org/2000/svg" xmlns:xlink="http://www.w3.org/1999/xlink" x="0px" y="0px"
	 viewBox="0 0 16 16" style="enable-background:new 0 0 16 16;" xml:space="preserve">
<g id="删除">
	<path d="M13,3.1v11.8H3V3.1H13 M14,2H2v12.9C2,15.5,2.4,16,3,16h10c0.6,0,1-0.5,1-1.1V2L14,2z"/>
	<path d="M10,1v1H6V1H10 M10,0H6C5.4,0,5,0.4,5,1v2h6V1C11,0.4,10.6,0,10,0L10,0z"/>
	<path d="M15.5,3h-15C0.2,3,0,2.8,0,2.5l0,0C0,2.2,0.2,2,0.5,2h15C15.8,2,16,2.2,16,2.5l0,0C16,2.8,15.8,3,15.5,3z"/>
	<rect x="6" y="5" width="1" height="8"/>
	<rect x="9" y="5" width="1" height="8"/>
</g>
</svg>
