<?xml version="1.0" encoding="utf-8"?>
<!-- Generator: Adobe Illustrator 21.0.0, SVG Export Plug-In . SVG Version: 6.00 Build 0)  -->
<svg version="1.1" id="搜索" xmlns="http://www.w3.org/2000/svg" xmlns:xlink="http://www.w3.org/1999/xlink" x="0px" y="0px"
	 viewBox="0 0 16 16" style="enable-background:new 0 0 16 16;" xml:space="preserve">
<g>
	<path d="M6.5,0C2.9,0,0,2.9,0,6.5S2.9,13,6.5,13S13,10.1,13,6.5S10.1,0,6.5,0z M6.5,12C3.5,12,1,9.5,1,6.5S3.5,1,6.5,1
		S12,3.5,12,6.5S9.5,12,6.5,12z"/>
</g>
<g>
	<path d="M15.1,15.1L15.1,15.1c-0.4,0.4-1,0.4-1.4,0l-3.5-3.5l1.4-1.4l3.5,3.5C15.5,14.1,15.5,14.7,15.1,15.1z"/>
</g>
</svg>
