<?xml version="1.0" encoding="utf-8"?>
<!-- Generator: Adobe Illustrator 21.0.0, SVG Export Plug-In . SVG Version: 6.00 Build 0)  -->
<svg version="1.1" id="图层_1" xmlns="http://www.w3.org/2000/svg" xmlns:xlink="http://www.w3.org/1999/xlink" x="0px" y="0px"
	 viewBox="0 0 16 16" style="enable-background:new 0 0 16 16;" xml:space="preserve">
<g id="预览">
	<g>
		<path d="M8,14c-6.6,0-8-5.8-8-5.9V8V7.9C0,7.9,1.4,2,8,2s8,5.8,8,5.9V8v0.1C15.9,8.2,14.2,14,8,14L8,14z M1,8c0.2,0.8,1.9,5,7,5
			c4.9,0,6.7-4.2,7-5c-0.2-0.8-1.9-5-7-5C2.8,3,1.2,7.2,1,8L1,8z"/>
	</g>
	<g>
		<path d="M8,6c1.1,0,2,0.9,2,2s-0.9,2-2,2S6,9.1,6,8S6.9,6,8,6 M8,5C6.3,5,5,6.3,5,8s1.3,3,3,3s3-1.3,3-3S9.7,5,8,5L8,5z"/>
	</g>
</g>
</svg>
