<?xml version="1.0" encoding="utf-8"?>
<!-- Generator: Adobe Illustrator 21.0.0, SVG Export Plug-In . SVG Version: 6.00 Build 0)  -->
<svg version="1.1" id="图层_1" xmlns="http://www.w3.org/2000/svg" xmlns:xlink="http://www.w3.org/1999/xlink" x="0px" y="0px"
	 viewBox="0 0 16 16" style="enable-background:new 0 0 16 16;" xml:space="preserve">
<g id="图层_8">
	<g>
		<path d="M13.2,1c0.1,0,0.2,0.1,0.2,0.2c0.1,0.1,0.1,0.3,0,0.5L10,6.8L9.8,7v0.3v7.4c0,0.2-0.1,0.2-0.1,0.2l0,0L6.2,13
			c0,0-0.1-0.1-0.1-0.2V7.3V7L6,6.8L2.6,1.7c-0.1-0.2-0.1-0.4,0-0.5C2.6,1.1,2.7,1,2.8,1H13.2 M13.2,0H2.8c-1,0-1.6,1.2-1.1,2.2
			l3.5,5.1v5.5c0,0.5,0.2,0.9,0.6,1.1l3.5,1.9C9.4,16,9.6,16,9.7,16c0.6,0,1.1-0.5,1.1-1.2V7.3l3.5-5.1C14.8,1.2,14.2,0,13.2,0
			L13.2,0z"/>
	</g>
</g>
</svg>
