<?xml version="1.0" encoding="utf-8"?>
<!-- Generator: Adobe Illustrator 21.0.0, SVG Export Plug-In . SVG Version: 6.00 Build 0)  -->
<svg version="1.1" id="图层_1" xmlns="http://www.w3.org/2000/svg" xmlns:xlink="http://www.w3.org/1999/xlink" x="0px" y="0px"
	 viewBox="0 0 16 16" style="enable-background:new 0 0 16 16;" xml:space="preserve">
<g id="图层_7">
	<path d="M15,1v10H5V1H15 M15,0H5C4.4,0,4,0.4,4,1v10c0,0.6,0.4,1,1,1h10c0.6,0,1-0.4,1-1V1C16,0.4,15.6,0,15,0L15,0z"/>
	<path d="M11,12v3H1V5h2.9H4V4H3.9H1C0.4,4,0,4.4,0,5v10c0,0.6,0.4,1,1,1h10c0.6,0,1-0.4,1-1v-3H11z"/>
</g>
</svg>
