<?xml version="1.0" encoding="utf-8"?>
<!-- Generator: Adobe Illustrator 21.0.0, SVG Export Plug-In . SVG Version: 6.00 Build 0)  -->
<svg version="1.1" id="图层_1" xmlns="http://www.w3.org/2000/svg" xmlns:xlink="http://www.w3.org/1999/xlink" x="0px" y="0px"
	 viewBox="0 0 28 28" style="enable-background:new 0 0 28 28;" xml:space="preserve">
<path d="M12.4,22.7c0,0.2-0.1,0.3-0.3,0.3h-4c-0.2,0-0.3-0.1-0.3-0.3V12.2c0-0.2,0.1-0.3,0.3-0.3h4c0.2,0,0.3,0.1,0.3,0.3V22.7z"/>
<path d="M20.2,22.7c0,0.2-0.1,0.3-0.3,0.3h-3.8c-0.2,0-0.3-0.1-0.3-0.3v-11c0-1.1-0.7-2.9-3-2.9H4.7C4.5,8.7,4.4,8.9,4.4,9v13.7
	c0,0.2-0.1,0.3-0.3,0.3H0.3C0.1,23,0,22.9,0,22.7V5.3C0,5.1,0.1,5,0.3,5h14.5c1.4,0,2.6,0.2,4,1.6c1.3,1.3,1.4,2.8,1.4,3.8
	C20.2,10.4,20.2,22.7,20.2,22.7z"/>
<path d="M28,22.7c0,0.2-0.1,0.3-0.3,0.3h-3.8c-0.2,0-0.3-0.1-0.3-0.3V5.3c0-0.2,0.1-0.3,0.3-0.3h3.8C27.9,5,28,5.1,28,5.3V22.7z"/>
</svg>
