<?xml version="1.0" encoding="utf-8"?>
<!-- Generator: Adobe Illustrator 21.0.0, SVG Export Plug-In . SVG Version: 6.00 Build 0)  -->
<svg version="1.1" id="图层_1" xmlns="http://www.w3.org/2000/svg" xmlns:xlink="http://www.w3.org/1999/xlink" x="0px" y="0px"
	 viewBox="0 0 50 50" style="enable-background:new 0 0 50 50;" xml:space="preserve">
<path d="M35,0H14c-1.7,0-3,1.3-3,3v5H3c-1.7,0-3,1.3-3,3v31c0,1.7,1.3,3,3,3h8v2c0,1.7,1.3,3,3,3h33c1.7,0,3-1.3,3-3V15L35,0z
	 M37,4.8l8.2,8.2H37V4.8z M3,43c-0.6,0-1-0.4-1-1V11c0-0.6,0.4-1,1-1h8v33H3z M48,47c0,0.6-0.4,1-1,1H14c-0.6,0-1-0.4-1-1V3
	c0-0.6,0.4-1,1-1h21v11c0,1.1,0.9,2,2,2h11V47z"/>
</svg>
