<?xml version="1.0" encoding="utf-8"?>
<!-- Generator: Adobe Illustrator 21.0.0, SVG Export Plug-In . SVG Version: 6.00 Build 0)  -->
<svg version="1.1" id="图层_1" xmlns="http://www.w3.org/2000/svg" xmlns:xlink="http://www.w3.org/1999/xlink" x="0px" y="0px"
	 viewBox="0 0 14 14" style="enable-background:new 0 0 14 14;" xml:space="preserve">
<g>
	<path d="M13.7,12.5l-3.2-3.3c0,0-0.1,0-0.1-0.1c0.7-0.9,1.1-2.1,1.1-3.3C11.5,2.6,8.9,0,5.8,0C2.6,0,0,2.6,0,5.8s2.6,5.8,5.8,5.8
		c1.3,0,2.5-0.4,3.5-1.2c0,0,0,0,0,0.1l3.2,3.3c0.2,0.2,0.4,0.3,0.6,0.3c0.2,0,0.4-0.1,0.6-0.3C14.1,13.4,14.1,12.8,13.7,12.5
		L13.7,12.5z M0.9,5.8c0-2.7,2.2-4.9,4.9-4.9s4.9,2.2,4.9,4.9s-2.2,4.9-4.9,4.9C3.1,10.7,0.9,8.5,0.9,5.8L0.9,5.8z"/>
</g>
</svg>
