<?xml version="1.0" encoding="utf-8"?>
<!-- Generator: Adobe Illustrator 21.0.0, SVG Export Plug-In . SVG Version: 6.00 Build 0)  -->
<svg version="1.1" id="图层_1" xmlns="http://www.w3.org/2000/svg" xmlns:xlink="http://www.w3.org/1999/xlink" x="0px" y="0px"
	 viewBox="0 0 28 28" style="enable-background:new 0 0 28 28;" xml:space="preserve">
<path style="display:none;fill:#D6E9FF;" d="M20,22H8c-4.4,0-8-3.6-8-8l0,0c0-4.4,3.6-8,8-8h12c4.4,0,8,3.6,8,8l0,0
	C28,18.4,24.4,22,20,22z"/>
<circle style="display:none;fill:#4DA1FF;" cx="20" cy="14" r="6"/>
<path style="fill:#E2E4E6;" d="M20,21.8H8c-4.4,0-8-3.6-8-8l0,0c0-4.4,3.6-8,8-8h12c4.4,0,8,3.6,8,8l0,0C28,18.1,24.4,21.8,20,21.8z
	"/>
<circle style="fill:#ABAFB5;" cx="8" cy="13.8" r="6"/>
</svg>
